# xmcd
#
# Track frame offsets: 
#        150
#        16281
#        33162
#        49701
#        70254
#        85916
#        113398
#
# Disc length: 1722 seconds
#
# Revision: 0
# Processed by: cddbd v1.5.2PL0 Copyright (c) Steve Scherf et al.
# Submitted via: ExactAudioCopy v1.0b1
#
DISCID=4906b807
DTITLE=Sido - Ein Teil Von Mir (maxi)
DYEAR=2007
DGENRE=Hip-Hop
TTITLE0=Ein Teil von mir (Original)
TTITLE1=Ein Teil von mir
TTITLE2=Ein Teil von mir (Tai Jason Remix)
TTITLE3=Kein Gott
TTITLE4=Schlechtes Vorbild (Trapstar Remix)
TTITLE5=Ein Teil von mir (Instrumental)
TTITLE6=Ein Teil von mir (Video)
EXTD=
EXTT0=
EXTT1=
EXTT2=
EXTT3=
EXTT4=
EXTT5=
EXTT6=
PLAYORDER=
